<mxfile host="app.diagrams.net" modified="2020-10-11T11:32:35.435Z" agent="5.0 (Windows NT 10.0; Win64; x64) AppleWebKit/537.36 (KHTML, like Gecko) Chrome/85.0.4183.102 Safari/537.36" etag="0GCNjswK0C0GvHencKnl" version="13.7.9" type="github">
  <diagram id="3ynH24TRXFZLD1gQ7n9X" name="Page-1">
    <mxGraphModel dx="1221" dy="645" grid="1" gridSize="10" guides="1" tooltips="1" connect="1" arrows="1" fold="1" page="1" pageScale="1" pageWidth="827" pageHeight="1169" math="0" shadow="0">
      <root>
        <mxCell id="0" />
        <mxCell id="1" parent="0" />
        <mxCell id="YyUq5Y5ljoSKG1FCjh4u-6" value="" style="edgeStyle=orthogonalEdgeStyle;rounded=0;orthogonalLoop=1;jettySize=auto;html=1;" edge="1" parent="1" source="YyUq5Y5ljoSKG1FCjh4u-1" target="YyUq5Y5ljoSKG1FCjh4u-5">
          <mxGeometry relative="1" as="geometry" />
        </mxCell>
        <mxCell id="YyUq5Y5ljoSKG1FCjh4u-27" value="" style="edgeStyle=orthogonalEdgeStyle;rounded=0;orthogonalLoop=1;jettySize=auto;html=1;" edge="1" parent="1" source="YyUq5Y5ljoSKG1FCjh4u-1" target="YyUq5Y5ljoSKG1FCjh4u-15">
          <mxGeometry relative="1" as="geometry" />
        </mxCell>
        <mxCell id="YyUq5Y5ljoSKG1FCjh4u-1" value="&lt;font style=&quot;font-size: 18px&quot;&gt;main&lt;/font&gt;" style="rounded=0;whiteSpace=wrap;html=1;" vertex="1" parent="1">
          <mxGeometry x="320" y="10" width="120" height="60" as="geometry" />
        </mxCell>
        <mxCell id="YyUq5Y5ljoSKG1FCjh4u-10" value="" style="edgeStyle=orthogonalEdgeStyle;rounded=0;orthogonalLoop=1;jettySize=auto;html=1;" edge="1" parent="1" source="YyUq5Y5ljoSKG1FCjh4u-5" target="YyUq5Y5ljoSKG1FCjh4u-9">
          <mxGeometry relative="1" as="geometry" />
        </mxCell>
        <mxCell id="YyUq5Y5ljoSKG1FCjh4u-12" value="" style="edgeStyle=orthogonalEdgeStyle;rounded=0;orthogonalLoop=1;jettySize=auto;html=1;" edge="1" parent="1" source="YyUq5Y5ljoSKG1FCjh4u-5" target="YyUq5Y5ljoSKG1FCjh4u-11">
          <mxGeometry relative="1" as="geometry" />
        </mxCell>
        <mxCell id="YyUq5Y5ljoSKG1FCjh4u-14" value="" style="edgeStyle=orthogonalEdgeStyle;rounded=0;orthogonalLoop=1;jettySize=auto;html=1;" edge="1" parent="1" source="YyUq5Y5ljoSKG1FCjh4u-5" target="YyUq5Y5ljoSKG1FCjh4u-13">
          <mxGeometry relative="1" as="geometry" />
        </mxCell>
        <mxCell id="YyUq5Y5ljoSKG1FCjh4u-5" value="&lt;font style=&quot;font-size: 18px&quot;&gt;to_file&lt;br&gt;&lt;/font&gt;" style="rounded=0;whiteSpace=wrap;html=1;" vertex="1" parent="1">
          <mxGeometry x="260" y="120" width="120" height="60" as="geometry" />
        </mxCell>
        <mxCell id="YyUq5Y5ljoSKG1FCjh4u-9" value="&lt;font style=&quot;font-size: 18px&quot;&gt;create_expression&lt;br&gt;&lt;/font&gt;" style="rounded=0;whiteSpace=wrap;html=1;" vertex="1" parent="1">
          <mxGeometry x="100" y="250" width="160" height="60" as="geometry" />
        </mxCell>
        <mxCell id="YyUq5Y5ljoSKG1FCjh4u-11" value="&lt;font style=&quot;font-size: 18px&quot;&gt;get_answer&lt;br&gt;&lt;/font&gt;" style="rounded=0;whiteSpace=wrap;html=1;" vertex="1" parent="1">
          <mxGeometry x="260" y="320" width="120" height="60" as="geometry" />
        </mxCell>
        <mxCell id="YyUq5Y5ljoSKG1FCjh4u-13" value="&lt;font style=&quot;font-size: 18px&quot;&gt;check&lt;br&gt;&lt;/font&gt;" style="rounded=0;whiteSpace=wrap;html=1;" vertex="1" parent="1">
          <mxGeometry x="353" y="250" width="120" height="60" as="geometry" />
        </mxCell>
        <mxCell id="YyUq5Y5ljoSKG1FCjh4u-15" value="&lt;font style=&quot;font-size: 18px&quot;&gt;check_answer&lt;/font&gt;" style="rounded=0;whiteSpace=wrap;html=1;" vertex="1" parent="1">
          <mxGeometry x="400" y="120" width="120" height="60" as="geometry" />
        </mxCell>
      </root>
    </mxGraphModel>
  </diagram>
</mxfile>
